<svg width="7" height="7" viewBox="0 0 7 7" fill="none" xmlns="http://www.w3.org/2000/svg">
<path d="M3.77978 6.146L6.62178 3.626C6.91578 3.346 6.91578 3.038 6.62178 2.772L3.77978 0.238C3.65378 0.126 3.49978 0.224 3.58378 0.378L4.77378 2.618C4.98378 3.038 4.98378 3.346 4.77378 3.766L3.58378 6.006C3.49978 6.16 3.65378 6.258 3.77978 6.146ZM0.223781 6.006C0.139781 6.16 0.293781 6.258 0.419781 6.146L3.26178 3.626C3.55578 3.346 3.55578 3.038 3.26178 2.772L0.419781 0.238C0.293781 0.126 0.139781 0.224 0.223781 0.378L1.41378 2.618C1.62378 3.038 1.62378 3.346 1.41378 3.766L0.223781 6.006Z" fill="#BECCBE"/>
</svg>
