<svg width="491" height="406" viewBox="0 0 491 406" fill="none" xmlns="http://www.w3.org/2000/svg">
<path d="M258.243 33.4615C298.128 33.4615 330.577 42.5874 330.577 86.5268C330.577 130.466 298.128 139.592 258.581 139.592H258.243C218.357 139.592 186.246 130.466 186.246 86.5268C186.246 42.5874 218.357 33.4615 258.243 33.4615Z" fill="url(#paint0_radial_312_208)"/>
<path d="M288.326 137.226C286.974 137.902 285.96 139.592 286.636 140.944C286.636 141.282 286.636 141.282 286.974 141.62C290.016 146.69 293.396 151.422 296.776 156.154V156.492C296.776 156.492 296.776 156.492 296.438 156.492H296.1C288.664 153.45 281.904 149.394 275.481 144.324C272.101 141.62 268.045 140.268 263.651 140.268C272.777 139.592 280.889 138.916 288.326 137.226Z" fill="url(#paint1_radial_312_208)"/>
<path d="M276.157 143.986C272.777 141.282 268.721 139.93 264.327 139.93C272.777 139.592 281.228 138.916 288.664 137.564C287.312 138.24 286.298 139.93 286.974 141.282C286.974 141.62 286.974 141.62 287.312 141.958C287.65 142.296 287.65 142.634 287.988 142.972C285.284 138.578 272.101 140.944 276.157 143.986Z" fill="url(#paint2_linear_312_208)"/>
<path d="M294.748 74.359H221.737C221.061 74.359 220.723 74.697 220.723 75.373V75.711C220.723 76.387 221.061 76.725 221.737 76.725H294.748C295.424 76.725 295.762 76.387 295.762 75.711V75.373C295.762 75.035 295.086 74.359 294.748 74.359Z" fill="#F66DBC"/>
<path d="M294.748 85.5128H221.737C221.061 85.5128 220.723 85.8508 220.723 86.5268V86.8648C220.723 87.5408 221.061 87.8788 221.737 87.8788H294.748C295.424 87.8788 295.762 87.5408 295.762 86.8648V86.5268C295.762 85.8508 295.086 85.5128 294.748 85.5128Z" fill="#F66DBC"/>
<path d="M294.748 96.3287H221.737C221.061 96.3287 220.723 96.6667 220.723 97.3427V97.6807C220.723 98.3567 221.061 98.6947 221.737 98.6947H294.748C295.424 98.6947 295.762 98.3567 295.762 97.6807V97.3427C295.762 97.0047 295.086 96.3287 294.748 96.3287Z" fill="#F66DBC"/>
<path d="M39.2098 240.991L40.5618 236.259C41.5758 233.555 44.2799 231.865 47.3221 232.203C49.6881 232.541 51.7162 231.865 53.0683 229.837C53.0683 229.499 53.4063 229.499 53.4063 229.161C54.7584 227.471 55.0963 224.767 53.7443 222.739C53.0683 221.387 52.7303 220.035 53.0683 218.683H52.7303L52.0542 211.247H62.8707C64.5607 211.247 65.9128 211.923 67.2649 213.275C68.9549 214.965 71.321 215.641 73.3491 214.965L74.0251 214.627C75.7152 213.951 77.4053 212.599 77.7433 210.909H75.7152L74.3631 204.825H88.8977C91.9398 204.825 94.3059 207.191 94.6439 209.895C94.982 212.261 96.672 213.951 98.7001 214.627L99.3761 214.965L99.0381 211.585H109.517C110.869 211.585 111.883 211.923 112.897 212.599L116.953 215.303C119.319 216.993 119.995 220.373 118.643 222.739C117.629 224.767 117.629 227.133 118.981 229.161C118.981 229.499 119.319 229.499 119.319 229.837C120.671 231.865 123.037 232.541 125.065 232.203C128.107 231.527 130.811 233.217 131.825 236.259L133.177 240.991C134.192 243.695 132.839 246.737 130.135 248.089C128.107 249.103 126.755 251.131 126.755 253.497V253.835V254.173C126.755 256.538 128.107 258.566 130.135 259.58C132.839 260.932 134.192 263.974 133.177 266.678L131.825 271.41C130.811 274.114 128.107 275.804 125.065 275.466C122.699 275.128 120.671 275.804 119.319 277.832C119.319 278.17 118.981 278.17 118.981 278.508C117.629 280.198 117.291 282.902 118.643 284.93C119.995 287.634 119.319 290.676 116.953 292.366L112.897 295.07C111.883 295.746 110.531 296.084 109.179 296.084H99.0381V292.704L98.3621 293.042C96.334 293.718 94.6439 295.746 94.3059 297.774C93.9679 300.816 91.6018 302.844 88.5597 302.844H73.0111V293.718L76.0532 294.056C75.3772 293.38 74.7012 293.042 74.0251 292.704L73.3491 292.366C71.321 291.69 68.6169 292.366 67.2649 294.056C66.2508 295.408 64.5607 296.084 62.8707 296.084H52.3923L53.4063 288.648C53.0683 287.296 53.4063 285.606 54.0823 284.592C55.0964 282.564 55.0963 280.198 53.7443 278.17C53.7443 277.832 53.4063 277.832 53.4063 277.494C52.0543 275.466 49.6882 274.79 47.6601 275.128C44.618 275.804 41.9139 274.114 40.8998 271.072L39.5477 266.34C38.5337 263.636 39.8858 260.594 42.5899 259.242C44.618 258.228 45.97 256.2 45.97 253.835V253.497V253.159C45.97 250.793 44.618 248.765 42.5899 247.751C39.5478 246.737 38.1957 243.695 39.2098 240.991ZM66.9268 253.835C66.9268 264.65 75.7152 273.438 86.5316 273.438C97.348 273.438 106.136 264.65 106.136 253.835C106.136 243.019 97.348 234.231 86.5316 234.231C75.7152 233.893 66.9268 242.681 66.9268 253.835Z" fill="url(#paint3_linear_312_208)"/>
<path d="M31.4354 259.242C33.4635 258.228 34.8156 256.2 34.8156 253.835V253.497V253.159C34.8156 250.793 33.4635 248.765 31.4354 247.751C28.7313 246.399 27.3792 243.357 28.3933 240.653L29.7454 235.921C30.7594 233.217 33.4635 231.527 36.5056 231.865C38.8717 232.203 41.2378 231.527 42.2519 229.499C42.2519 229.161 42.5899 229.161 42.5899 228.823C43.9419 227.133 44.2799 224.429 42.9279 222.401C41.5758 219.697 42.2518 216.655 44.6179 214.965L48.6741 212.261C51.0402 210.571 54.4203 210.909 56.4484 212.937C58.1385 214.627 60.5046 215.303 62.5327 214.627L63.2087 214.289C65.2368 213.613 66.9269 211.585 67.2649 209.557C67.6029 206.515 69.969 204.487 73.0111 204.487H77.7433C80.7854 204.487 83.1515 206.853 83.4895 209.557C83.8275 211.923 85.5176 213.613 87.5457 214.289L88.2217 214.627C90.2498 215.303 92.9539 214.627 94.306 212.937C96.334 210.909 99.7142 210.571 102.08 212.261L106.136 214.965C108.503 216.655 109.179 220.035 107.827 222.401C106.812 224.429 106.812 226.795 108.165 228.823C108.165 229.161 108.503 229.161 108.503 229.499C109.855 231.527 112.221 232.203 114.249 231.865C117.291 231.189 119.995 232.879 121.009 235.921L122.361 240.653C123.375 243.357 122.023 246.399 119.319 247.751C117.291 248.765 115.939 250.793 115.939 253.159V253.497V253.835C115.939 256.2 117.291 258.228 119.319 259.242C122.023 260.594 123.375 263.636 122.361 266.34L121.009 271.072C119.995 273.776 117.291 275.466 114.249 275.128C111.883 274.79 109.855 275.466 108.503 277.494C108.503 277.832 108.165 277.832 108.165 278.17C106.812 279.86 106.474 282.564 107.827 284.592C109.179 287.296 108.503 290.338 106.136 292.028L102.08 294.732C99.7142 296.422 96.334 296.084 94.306 294.056C92.6159 292.366 90.2498 291.69 88.2217 292.366L87.5457 292.704C85.5176 293.38 83.8275 295.408 83.4895 297.436C83.1515 300.478 80.7854 302.506 77.7433 302.506H73.0111C69.969 302.506 67.6029 300.14 67.2649 297.436C66.9269 295.07 65.2368 293.38 63.2087 292.704L62.5327 292.366C60.5046 291.69 57.8005 292.366 56.4484 294.056C54.4203 296.084 51.0402 296.422 48.6741 294.732L44.6179 292.028C42.2518 290.338 41.5758 286.958 42.9279 284.592C43.9419 282.564 43.9419 280.198 42.5899 278.17C42.5899 277.832 42.2519 277.832 42.2519 277.494C40.8998 275.466 38.5337 274.79 36.5056 275.128C33.4635 275.804 30.7594 274.114 29.7454 271.072L28.3933 266.34C27.3792 263.636 28.7313 260.594 31.4354 259.242ZM75.7152 273.438C86.5316 273.438 95.32 264.65 95.32 253.835C95.32 243.019 86.5316 234.231 75.7152 234.231C64.8988 234.231 56.1104 243.019 56.1104 253.835C56.1104 264.65 64.8988 273.438 75.7152 273.438Z" fill="url(#paint4_linear_312_208)"/>
<path d="M173.739 183.531C172.387 184.545 171.373 185.559 170.021 186.573L173.739 183.531Z" fill="white"/>
<path d="M173.739 183.531C172.387 184.545 171.373 185.559 170.021 186.573" stroke="black" stroke-width="0.2162" stroke-linejoin="round"/>
<path d="M158.866 213.951C157.852 194.685 173.063 178.124 192.33 177.448C193.006 177.448 193.344 177.448 194.02 177.448C211.934 177.448 227.145 191.305 228.835 208.881C229.511 214.289 228.497 220.035 226.807 225.105C222.413 236.597 221.061 249.103 222.751 261.27L223.089 264.312L186.245 267.692L180.499 244.709C167.993 239.301 159.542 227.471 158.866 213.951Z" fill="url(#paint5_radial_312_208)"/>
<path d="M180.161 244.709C188.95 248.427 199.09 248.427 207.878 244.371C200.104 249.779 190.64 251.807 181.175 249.779L180.161 244.709Z" fill="#A06069"/>
<path d="M187.936 160.548H202.47C206.188 160.886 209.906 161.562 213.625 162.576C234.581 169.674 246.412 193.333 239.652 214.627C238.638 217.669 237.286 220.373 235.934 223.077C231.877 230.175 222.751 232.541 215.653 229.161C207.878 225.781 204.16 216.993 207.202 209.219C207.878 206.177 206.188 202.797 203.146 201.445C202.47 201.107 201.456 201.107 200.78 201.107L189.626 201.783C185.569 202.121 181.175 200.769 177.795 198.403C173.739 195.699 170.697 191.305 169.683 186.235C164.275 191.305 160.556 198.065 159.204 205.501C145.346 189.953 154.81 160.548 187.936 160.548Z" fill="url(#paint6_radial_312_208)"/>
<path d="M174.415 162.238L170.359 178.124C169.683 180.49 169.683 183.194 170.021 185.559C170.021 185.897 170.021 185.897 170.021 186.235C164.613 191.305 160.895 198.065 159.542 205.501C147.374 192.319 152.444 168.998 174.415 162.238Z" fill="url(#paint7_radial_312_208)"/>
<path d="M151.092 358.951L150.078 299.802C150.078 292.704 150.754 285.606 152.106 278.508C154.81 264.988 168.331 255.862 181.851 258.904C182.866 259.242 183.88 259.58 185.232 259.918C196.386 263.636 208.555 262.96 219.371 257.89L219.709 257.214C225.117 254.848 230.863 253.497 236.61 253.497C251.144 253.497 263.313 263.636 266.017 277.832L279.199 347.121C282.241 363.683 275.819 380.583 262.637 391.061C254.524 397.483 244.722 400.863 234.582 400.863H103.094V380.583C103.094 376.189 105.798 372.471 109.855 371.119L151.092 358.951Z" fill="url(#paint8_radial_312_208)"/>
<path d="M167.317 373.823L164.275 299.126H236.948L251.144 364.697L167.317 373.823Z" fill="url(#paint9_radial_312_208)"/>
<path d="M164.275 299.126L168.331 401.2H103.094V380.921C103.094 376.527 105.798 372.809 109.854 371.457L151.092 358.951L150.416 310.618L164.275 299.126Z" fill="url(#paint10_radial_312_208)"/>
<path d="M236.948 354.557L230.188 355.909" stroke="black" stroke-width="0.2162" stroke-linejoin="round"/>
<path d="M161.909 400.863V385.991C161.909 377.879 167.317 371.119 175.091 369.091L230.526 355.571L221.399 298.788H269.735L278.861 347.121C281.904 363.683 275.481 380.583 262.299 391.061C254.186 397.483 244.384 400.863 234.244 400.863H161.909Z" fill="url(#paint11_radial_312_208)"/>
<path d="M122.023 387.681C122.023 380.921 116.615 375.175 109.854 374.499C106.136 374.161 102.756 374.161 99.038 374.161C82.8134 374.161 66.5888 378.555 52.7302 387.343C50.0261 389.033 48.674 392.413 49.3501 395.455C50.3641 398.835 53.0682 400.863 56.4483 400.863H108.502C116.277 400.863 122.023 395.117 122.023 387.681Z" fill="url(#paint12_radial_312_208)"/>
<path d="M58.4765 394.779C58.4765 392.751 59.4905 390.723 61.1806 389.371C61.8566 389.033 62.5326 388.357 63.2087 388.019C72.673 382.611 83.1515 379.231 93.9679 378.555H94.3059L91.9398 374.499C78.0812 375.513 64.5607 379.907 52.7303 387.343C50.0262 389.033 48.6741 392.413 49.3501 395.455C50.3642 398.835 53.0683 400.863 56.4484 400.863H64.2227C61.1806 400.863 58.4765 398.159 58.4765 394.779Z" fill="url(#paint13_radial_312_208)"/>
<path d="M81.4614 400.863C79.4333 400.863 77.7432 399.173 77.7432 397.145C77.7432 395.793 78.4193 394.441 79.4333 393.765C86.8696 389.371 94.9819 387.005 103.77 387.005L101.066 382.273C90.2497 382.273 79.4333 385.653 70.3069 391.399C68.9549 392.413 67.9408 394.103 67.9408 395.793C67.9408 398.497 69.9689 400.863 72.673 400.863H81.4614Z" fill="url(#paint14_radial_312_208)"/>
<path d="M73.0109 400.863C70.3068 400.863 68.2787 398.497 68.2787 395.793C68.2787 394.103 69.2928 392.413 70.6448 391.399C79.7712 385.315 90.5876 382.273 101.404 382.273L94.6438 378.555H94.3058C83.4893 379.231 73.0109 382.611 63.5466 388.019C62.8705 388.357 62.1945 389.033 61.5185 389.371C59.8284 390.385 58.8144 392.413 58.8144 394.779C58.8144 398.159 61.5185 400.863 64.8986 400.863H73.0109Z" fill="url(#paint15_radial_312_208)"/>
<path d="M68.2788 405.932H152.444C155.148 405.932 157.514 403.566 157.514 400.863H68.2788V405.932Z" fill="url(#paint16_linear_312_208)"/>
<path d="M11.1546 327.18H71.659C74.7011 327.18 77.0672 329.207 78.0812 331.911L101.742 405.932H32.1114C29.0693 405.932 26.7032 403.904 25.6892 401.2L5.0703 335.967C4.05626 332.587 5.74634 328.532 9.46449 327.518C9.80251 327.518 10.4785 327.18 11.1546 327.18Z" fill="#9AAA97"/>
<path d="M4.39421 327.18H67.9407C70.9828 327.18 73.3489 329.207 74.363 331.911L98.0239 405.932H28.3931C25.351 405.932 22.9849 403.904 21.9709 401.2L0.338058 332.925C-0.337967 330.559 1.01405 328.194 3.04212 327.518C3.38013 327.518 4.0562 327.18 4.39421 327.18Z" fill="url(#paint17_linear_312_208)"/>
<path d="M180.5 387.681C180.5 380.921 175.091 375.175 168.331 374.499C164.613 374.161 161.233 374.161 157.515 374.161C141.29 374.161 125.065 378.555 111.207 387.343C108.503 389.033 107.151 392.413 107.827 395.455C108.841 398.835 111.545 400.863 114.925 400.863H167.317C174.753 400.863 180.5 395.117 180.5 387.681Z" fill="url(#paint18_radial_312_208)"/>
<path d="M116.953 394.779C116.953 392.751 117.967 390.723 119.657 389.371C120.333 389.033 121.009 388.357 121.685 388.019C131.15 382.611 141.628 379.231 152.444 378.555H152.782L150.416 374.499C136.558 375.513 123.037 379.907 111.207 387.343C108.503 389.033 107.151 392.413 107.827 395.455C108.841 398.835 111.545 400.863 114.925 400.863H122.699C119.657 400.863 116.953 398.159 116.953 394.779Z" fill="url(#paint19_radial_312_208)"/>
<path d="M139.938 400.863C137.91 400.863 136.22 399.173 136.22 397.145C136.22 395.793 136.896 394.441 137.91 393.765C145.346 389.371 153.458 387.005 162.247 387.005L159.543 382.273C148.726 382.273 137.91 385.653 128.784 391.399C127.431 392.413 126.417 394.103 126.417 395.793C126.417 398.497 128.446 400.863 131.15 400.863H139.938Z" fill="url(#paint20_radial_312_208)"/>
<path d="M131.487 400.863C128.783 400.863 126.755 398.497 126.755 395.793C126.755 394.103 127.769 392.413 129.121 391.399C138.248 385.315 149.064 382.273 159.881 382.273L153.12 378.555H152.782C141.966 379.231 131.487 382.611 122.023 388.019C121.347 388.357 120.671 389.033 119.995 389.371C118.305 390.385 117.291 392.413 117.291 394.779C117.291 398.159 119.995 400.863 123.375 400.863H131.487Z" fill="url(#paint21_radial_312_208)"/>
<path d="M451.924 204.149C449.896 195.361 446.516 187.249 442.46 180.828C438.066 174.068 435.7 166.632 435.7 158.52C435.7 129.114 411.701 104.441 382.631 104.103C352.886 103.765 328.211 127.424 327.873 157.168C327.873 157.506 327.873 157.844 327.873 158.182V158.52C327.873 165.618 325.507 172.378 321.451 178.124C316.043 185.559 311.987 195.361 310.297 206.853C306.24 231.865 314.691 254.51 329.563 256.876C342.07 258.904 354.914 246.061 360.999 227.133L400.884 222.401C407.644 244.033 422.179 258.228 435.7 255.186C449.896 251.807 457.332 228.823 451.924 204.149Z" fill="url(#paint22_radial_312_208)"/>
<path d="M412.039 162.238C391.758 157.844 374.857 143.648 367.083 124.044C362.013 135.536 353.224 145 342.07 150.746C339.366 152.098 337.676 154.802 337.676 157.844C337.676 174.068 346.802 188.601 361.675 195.023L368.435 221.387H410.349C410.349 221.387 410.687 214.289 410.687 205.839C411.025 194.009 413.391 182.18 417.109 171.026V170.688C418.123 167.308 416.433 163.252 412.715 162.238C412.377 162.238 412.377 162.238 412.039 161.9V162.238Z" fill="url(#paint23_radial_312_208)"/>
<path d="M361.675 195.023C373.505 200.431 387.026 199.755 398.18 193.671C388.378 201.445 375.533 204.487 363.365 201.445L361.675 195.023Z" fill="#211613"/>
<path d="M261.623 280.198L277.171 341.713C280.889 356.247 293.734 366.387 308.945 366.387C325.169 366.387 339.028 354.219 341.394 337.995C342.746 326.504 343.76 315.012 343.76 303.52V275.128L261.623 280.198Z" fill="url(#paint24_radial_312_208)"/>
<path d="M343.422 275.466V303.858C343.422 315.35 342.746 326.842 341.056 338.333C340.042 345.431 336.662 352.191 331.591 357.599L313.001 282.226L311.311 277.832L343.422 275.466Z" fill="url(#paint25_radial_312_208)"/>
<path d="M463.417 400.863V382.949C479.641 377.203 490.458 361.993 490.458 345.093V299.464C490.458 283.24 488.768 267.354 485.388 251.469C479.979 226.457 458.008 208.543 432.657 208.543C427.249 208.543 421.841 209.219 416.433 210.909L397.166 216.993C388.378 219.697 378.575 219.359 370.125 215.303C363.703 212.599 356.942 211.585 349.844 212.599C335.986 214.965 324.831 225.105 321.113 238.625L313.339 267.016L329.563 281.888L332.943 334.953L337 400.863H463.417Z" fill="url(#paint26_radial_312_208)"/>
<path d="M435.699 262.284V314.674L378.575 280.198L362.689 304.872L330.239 287.972L329.901 282.226L318.071 271.41V256.876L435.699 262.284Z" fill="url(#paint27_radial_312_208)"/>
<path d="M435.699 314.674V262.284H487.078C489.106 274.79 490.12 287.296 490.12 299.464V331.235H463.079L435.699 314.674Z" fill="url(#paint28_radial_312_208)"/>
<path d="M424.207 376.189L354.914 317.04L378.575 280.198L463.079 331.235H490.12V345.431C490.12 362.669 479.303 377.879 463.079 383.287C461.05 383.287 434.685 384.639 424.207 376.189Z" fill="url(#paint29_radial_312_208)"/>
<path d="M463.078 383.287C465.445 382.273 468.149 381.259 470.177 379.907C468.149 381.259 465.783 382.273 463.078 383.287Z" fill="url(#paint30_radial_312_208)"/>
<path d="M350.52 314.336L354.914 317.04L424.207 375.851C434.685 384.639 461.051 382.949 463.079 382.949V400.863H337.338L333.281 334.953L330.915 300.816C337.338 305.548 343.76 310.28 350.52 314.336Z" fill="url(#paint31_radial_312_208)"/>
<path d="M470.515 379.907C471.867 379.231 473.219 378.217 474.233 377.203C472.881 378.217 471.867 378.893 470.515 379.907Z" fill="url(#paint32_radial_312_208)"/>
<path d="M345.788 281.55H249.454C247.764 281.55 246.074 280.198 245.736 277.832L232.216 202.459C231.54 199.755 233.568 197.051 235.934 197.051H332.268C333.958 197.051 335.648 198.403 335.986 200.769L349.506 276.142C349.844 278.846 348.154 281.55 345.788 281.55Z" fill="#9AAA97"/>
<path d="M343.422 281.55H247.088C245.398 281.55 243.708 280.198 243.37 277.832L229.849 202.459C229.173 199.755 231.201 197.051 233.567 197.051H329.901C331.591 197.051 333.281 198.403 333.619 200.769L347.14 276.142C347.478 278.846 345.788 281.55 343.422 281.55Z" fill="url(#paint33_linear_312_208)"/>
<path d="M370.801 269.382C362.351 257.89 350.52 249.103 336.662 244.709C331.591 243.019 326.183 242.005 321.113 241.667L311.311 240.991C307.592 240.653 304.55 243.357 304.212 247.075C304.212 249.103 304.888 250.793 306.24 252.145C303.874 252.821 302.184 254.849 301.846 257.552C301.508 260.256 303.198 262.96 305.902 263.974C305.226 264.988 304.55 266.002 304.55 267.354C304.212 270.058 305.564 272.424 307.93 273.438L311.649 275.128C310.972 275.804 310.296 276.48 309.958 277.156C309.282 279.184 309.62 281.55 310.972 282.902C322.803 294.732 335.985 305.21 350.182 313.998L354.914 317.04L378.575 280.198L370.801 269.382Z" fill="url(#paint34_radial_312_208)"/>
<path d="M304.212 247.075C304.55 243.695 307.592 240.991 311.311 241.329L321.113 242.005C326.521 242.343 331.591 243.357 336.662 245.047C342.746 247.075 348.492 249.779 353.562 253.159L344.098 264.988L336.324 261.27C328.211 257.214 319.423 255.187 310.297 254.511C308.606 254.511 307.254 253.835 306.24 252.483L305.226 251.131C304.212 249.779 304.212 248.427 304.212 247.075Z" fill="url(#paint35_radial_312_208)"/>
<path d="M301.846 257.552C302.184 255.186 303.874 252.821 306.24 252.145C307.254 253.159 308.944 253.835 310.634 254.172C319.761 254.848 328.549 257.214 336.661 260.932L344.436 264.65L336.661 274.114L331.929 271.748C324.155 268.03 315.705 265.326 307.254 264.312C306.916 264.312 306.24 264.312 305.902 263.974C303.198 263.298 301.508 260.594 301.846 257.552Z" fill="url(#paint36_radial_312_208)"/>
<path d="M307.254 264.312C315.705 265.326 324.155 268.03 331.929 271.748L336.662 274.114L331.591 284.93L311.649 275.128L307.93 273.438C305.564 272.424 304.212 269.72 304.55 267.354C304.55 266.002 305.226 264.988 305.902 263.974C306.24 264.312 306.578 264.312 307.254 264.312Z" fill="url(#paint37_radial_312_208)"/>
<path d="M309.959 277.494C310.297 276.818 310.973 275.804 311.649 275.466L331.253 285.268L326.183 297.098C320.775 292.704 315.705 288.31 310.973 283.24C309.621 281.888 309.283 279.522 309.959 277.494Z" fill="url(#paint38_radial_312_208)"/>
<defs>
<radialGradient id="paint0_radial_312_208" cx="0" cy="0" r="1" gradientUnits="userSpaceOnUse" gradientTransform="translate(265.055 63.3628) rotate(180) scale(85.4633 72.6399)">
<stop offset="0.77" stop-color="#F2F7F2"/>
<stop offset="0.86" stop-color="#ECF2EC"/>
<stop offset="0.97" stop-color="#DAE4DA"/>
<stop offset="1" stop-color="#D5E0D5"/>
</radialGradient>
<radialGradient id="paint1_radial_312_208" cx="0" cy="0" r="1" gradientUnits="userSpaceOnUse" gradientTransform="translate(287.863 136.203) rotate(-139.462) scale(26.4486 11.8186)">
<stop offset="0.37" stop-color="#F2F7F2"/>
<stop offset="0.7" stop-color="#E0E9E0"/>
<stop offset="1" stop-color="#D5E0D5"/>
</radialGradient>
<linearGradient id="paint2_linear_312_208" x1="276.357" y1="143.87" x2="276.357" y2="137.29" gradientUnits="userSpaceOnUse">
<stop stop-color="#9AAA97" stop-opacity="0"/>
<stop offset="1" stop-color="#9AAA97"/>
</linearGradient>
<linearGradient id="paint3_linear_312_208" x1="86.4595" y1="302.71" x2="86.4595" y2="204.672" gradientUnits="userSpaceOnUse">
<stop offset="0.48" stop-color="#9AAA97"/>
<stop offset="0.69" stop-color="#C3D2C3"/>
</linearGradient>
<linearGradient id="paint4_linear_312_208" x1="110.37" y1="219.137" x2="41.2289" y2="288.285" gradientUnits="userSpaceOnUse">
<stop offset="0.48" stop-color="#D5E0D5"/>
<stop offset="0.79" stop-color="#C3D2C3"/>
</linearGradient>
<radialGradient id="paint5_radial_312_208" cx="0" cy="0" r="1" gradientUnits="userSpaceOnUse" gradientTransform="translate(176.796 209.838) rotate(180) scale(44.4745 44.4721)">
<stop offset="0.68" stop-color="#F7B0B2"/>
<stop offset="0.77" stop-color="#E29DA1"/>
<stop offset="0.96" stop-color="#AD6C74"/>
<stop offset="1" stop-color="#A06069"/>
</radialGradient>
<radialGradient id="paint6_radial_312_208" cx="0" cy="0" r="1" gradientUnits="userSpaceOnUse" gradientTransform="translate(159.259 186.523) rotate(180) scale(77.7692 55.2131)">
<stop offset="0.68" stop-color="#13544E"/>
<stop offset="0.84" stop-color="#0E3F3A"/>
<stop offset="1" stop-color="#092622"/>
</radialGradient>
<radialGradient id="paint7_radial_312_208" cx="0" cy="0" r="1" gradientUnits="userSpaceOnUse" gradientTransform="translate(142.326 164.671) rotate(180) scale(47.9691 34.0563)">
<stop offset="0.68" stop-color="#092622" stop-opacity="0"/>
<stop offset="0.87" stop-color="#092622" stop-opacity="0.54"/>
<stop offset="1" stop-color="#092622"/>
</radialGradient>
<radialGradient id="paint8_radial_312_208" cx="0" cy="0" r="1" gradientUnits="userSpaceOnUse" gradientTransform="translate(207.234 301.588) rotate(180) scale(81.324 81.3197)">
<stop offset="0.53" stop-color="#4EA42F"/>
<stop offset="0.69" stop-color="#4BA12D"/>
<stop offset="0.79" stop-color="#429926"/>
<stop offset="0.88" stop-color="#338B1A"/>
<stop offset="0.96" stop-color="#1E770A"/>
<stop offset="1" stop-color="#126B00"/>
</radialGradient>
<radialGradient id="paint9_radial_312_208" cx="0" cy="0" r="1" gradientUnits="userSpaceOnUse" gradientTransform="translate(178.63 309.652) rotate(95.1431) scale(56.8115 63.0646)">
<stop offset="0.53" stop-color="#126B00" stop-opacity="0"/>
<stop offset="0.66" stop-color="#126B00" stop-opacity="0.03"/>
<stop offset="0.74" stop-color="#126B00" stop-opacity="0.11"/>
<stop offset="0.82" stop-color="#126B00" stop-opacity="0.25"/>
<stop offset="0.88" stop-color="#126B00" stop-opacity="0.45"/>
<stop offset="0.95" stop-color="#126B00" stop-opacity="0.7"/>
<stop offset="1" stop-color="#126B00"/>
</radialGradient>
<radialGradient id="paint10_radial_312_208" cx="0" cy="0" r="1" gradientUnits="userSpaceOnUse" gradientTransform="translate(128.24 308.198) rotate(94.9601) scale(72.2481 57.7986)">
<stop offset="0.53" stop-color="#4EA42F"/>
<stop offset="0.69" stop-color="#4BA12D"/>
<stop offset="0.79" stop-color="#429926"/>
<stop offset="0.88" stop-color="#338B1A"/>
<stop offset="0.96" stop-color="#1E770A"/>
<stop offset="1" stop-color="#126B00"/>
</radialGradient>
<radialGradient id="paint11_radial_312_208" cx="0" cy="0" r="1" gradientUnits="userSpaceOnUse" gradientTransform="translate(233.583 327.009) rotate(129.613) scale(67.7249 55.5322)">
<stop offset="0.53" stop-color="#4EA42F"/>
<stop offset="0.69" stop-color="#4BA12D"/>
<stop offset="0.79" stop-color="#429926"/>
<stop offset="0.88" stop-color="#338B1A"/>
<stop offset="0.96" stop-color="#1E770A"/>
<stop offset="1" stop-color="#126B00"/>
</radialGradient>
<radialGradient id="paint12_radial_312_208" cx="0" cy="0" r="1" gradientUnits="userSpaceOnUse" gradientTransform="translate(79.4069 379.894) scale(40.7661 19.9743)">
<stop offset="0.68" stop-color="#F7B0B2"/>
<stop offset="0.77" stop-color="#E29DA1"/>
<stop offset="0.96" stop-color="#AD6C74"/>
<stop offset="1" stop-color="#A06069"/>
</radialGradient>
<radialGradient id="paint13_radial_312_208" cx="0" cy="0" r="1" gradientUnits="userSpaceOnUse" gradientTransform="translate(79.3865 395.041) rotate(-17.3531) scale(28.7136 14.0837)">
<stop offset="0.68" stop-color="#A06069"/>
<stop offset="0.73" stop-color="#A06069" stop-opacity="0.87"/>
<stop offset="0.84" stop-color="#A06069" stop-opacity="0.53"/>
<stop offset="1" stop-color="#A06069" stop-opacity="0"/>
</radialGradient>
<radialGradient id="paint14_radial_312_208" cx="0" cy="0" r="1" gradientUnits="userSpaceOnUse" gradientTransform="translate(91.4084 399.193) rotate(-18.0714) scale(24.0124 11.3974)">
<stop offset="0.68" stop-color="#A06069"/>
<stop offset="0.73" stop-color="#A06069" stop-opacity="0.87"/>
<stop offset="0.84" stop-color="#A06069" stop-opacity="0.53"/>
<stop offset="1" stop-color="#A06069" stop-opacity="0"/>
</radialGradient>
<radialGradient id="paint15_radial_312_208" cx="0" cy="0" r="1" gradientUnits="userSpaceOnUse" gradientTransform="translate(85.79 397.335) rotate(-18.0714) scale(28.5396 13.5462)">
<stop offset="0.68" stop-color="#A06069"/>
<stop offset="0.73" stop-color="#A06069" stop-opacity="0.87"/>
<stop offset="0.84" stop-color="#A06069" stop-opacity="0.53"/>
<stop offset="1" stop-color="#A06069" stop-opacity="0"/>
</radialGradient>
<linearGradient id="paint16_linear_312_208" x1="112.735" y1="405.946" x2="112.735" y2="392.797" gradientUnits="userSpaceOnUse">
<stop stop-color="#9AAA97"/>
<stop offset="0.93" stop-color="#E4EBE4"/>
</linearGradient>
<linearGradient id="paint17_linear_312_208" x1="48.9669" y1="405.946" x2="48.9669" y2="327.322" gradientUnits="userSpaceOnUse">
<stop stop-color="#9AAA97"/>
<stop offset="0.93" stop-color="#E4EBE4"/>
</linearGradient>
<radialGradient id="paint18_radial_312_208" cx="0" cy="0" r="1" gradientUnits="userSpaceOnUse" gradientTransform="translate(137.853 379.894) scale(40.7661 19.9743)">
<stop offset="0.68" stop-color="#F7B0B2"/>
<stop offset="0.77" stop-color="#E29DA1"/>
<stop offset="0.96" stop-color="#AD6C74"/>
<stop offset="1" stop-color="#A06069"/>
</radialGradient>
<radialGradient id="paint19_radial_312_208" cx="0" cy="0" r="1" gradientUnits="userSpaceOnUse" gradientTransform="translate(138.118 394.83) rotate(-17.3531) scale(28.7136 14.0837)">
<stop offset="0.68" stop-color="#A06069"/>
<stop offset="0.73" stop-color="#A06069" stop-opacity="0.87"/>
<stop offset="0.84" stop-color="#A06069" stop-opacity="0.53"/>
<stop offset="1" stop-color="#A06069" stop-opacity="0"/>
</radialGradient>
<radialGradient id="paint20_radial_312_208" cx="0" cy="0" r="1" gradientUnits="userSpaceOnUse" gradientTransform="translate(149.789 399.128) rotate(-18.0714) scale(24.0124 11.3974)">
<stop offset="0.68" stop-color="#A06069"/>
<stop offset="0.73" stop-color="#A06069" stop-opacity="0.87"/>
<stop offset="0.84" stop-color="#A06069" stop-opacity="0.53"/>
<stop offset="1" stop-color="#A06069" stop-opacity="0"/>
</radialGradient>
<radialGradient id="paint21_radial_312_208" cx="0" cy="0" r="1" gradientUnits="userSpaceOnUse" gradientTransform="translate(144.178 397.265) rotate(-18.0714) scale(28.5396 13.5462)">
<stop offset="0.68" stop-color="#A06069"/>
<stop offset="0.73" stop-color="#A06069" stop-opacity="0.87"/>
<stop offset="0.84" stop-color="#A06069" stop-opacity="0.53"/>
<stop offset="1" stop-color="#A06069" stop-opacity="0"/>
</radialGradient>
<radialGradient id="paint22_radial_312_208" cx="0" cy="0" r="1" gradientUnits="userSpaceOnUse" gradientTransform="translate(364.548 152.412) rotate(180) scale(74.4553 74.4512)">
<stop offset="0.68" stop-color="#BDA1E7"/>
<stop offset="0.77" stop-color="#AB92D2"/>
<stop offset="0.97" stop-color="#7D6B9D"/>
<stop offset="1" stop-color="#746493"/>
</radialGradient>
<radialGradient id="paint23_radial_312_208" cx="0" cy="0" r="1" gradientUnits="userSpaceOnUse" gradientTransform="translate(369.816 147.264) rotate(180) scale(58.9242 58.9211)">
<stop offset="0.68" stop-color="#4A3328"/>
<stop offset="1" stop-color="#38261F"/>
</radialGradient>
<radialGradient id="paint24_radial_312_208" cx="0" cy="0" r="1" gradientUnits="userSpaceOnUse" gradientTransform="translate(283.634 290.603) rotate(166.104) scale(43.2288 70.9247)">
<stop offset="0.68" stop-color="#DEBE1A"/>
<stop offset="0.82" stop-color="#D4AD2F"/>
<stop offset="1" stop-color="#C4944E"/>
</radialGradient>
<radialGradient id="paint25_radial_312_208" cx="0" cy="0" r="1" gradientUnits="userSpaceOnUse" gradientTransform="translate(291.727 282.01) rotate(166.104) scale(37.552 61.611)">
<stop offset="0.68" stop-color="#C4944E"/>
<stop offset="0.72" stop-color="#C4944E" stop-opacity="0.89"/>
<stop offset="0.82" stop-color="#C4944E" stop-opacity="0.62"/>
<stop offset="0.95" stop-color="#C4944E" stop-opacity="0.18"/>
<stop offset="1" stop-color="#C4944E" stop-opacity="0"/>
</radialGradient>
<radialGradient id="paint26_radial_312_208" cx="0" cy="0" r="1" gradientUnits="userSpaceOnUse" gradientTransform="translate(366.136 283.802) rotate(121.458) scale(120.115 99.0314)">
<stop offset="0.68" stop-color="#DEBE1A"/>
<stop offset="0.82" stop-color="#D4AD2F"/>
<stop offset="1" stop-color="#C4944E"/>
</radialGradient>
<radialGradient id="paint27_radial_312_208" cx="0" cy="0" r="1" gradientUnits="userSpaceOnUse" gradientTransform="translate(463.568 306.602) rotate(121.458) scale(57.6602 47.5393)">
<stop offset="0.68" stop-color="#C4944E"/>
<stop offset="0.72" stop-color="#C4944E" stop-opacity="0.89"/>
<stop offset="0.82" stop-color="#C4944E" stop-opacity="0.62"/>
<stop offset="0.95" stop-color="#C4944E" stop-opacity="0.18"/>
<stop offset="1" stop-color="#C4944E" stop-opacity="0"/>
</radialGradient>
<radialGradient id="paint28_radial_312_208" cx="0" cy="0" r="1" gradientUnits="userSpaceOnUse" gradientTransform="translate(423.35 332.67) rotate(-124.011) scale(42.1654 34.5781)">
<stop offset="0.68" stop-color="#C4944E"/>
<stop offset="0.72" stop-color="#C4944E" stop-opacity="0.89"/>
<stop offset="0.82" stop-color="#C4944E" stop-opacity="0.62"/>
<stop offset="0.95" stop-color="#C4944E" stop-opacity="0.18"/>
<stop offset="1" stop-color="#C4944E" stop-opacity="0"/>
</radialGradient>
<radialGradient id="paint29_radial_312_208" cx="0" cy="0" r="1" gradientUnits="userSpaceOnUse" gradientTransform="translate(428.33 299.088) rotate(-154.533) scale(84.7552 48.3091)">
<stop offset="0.68" stop-color="#C4944E" stop-opacity="0"/>
<stop offset="0.72" stop-color="#C4944E" stop-opacity="0.11"/>
<stop offset="0.82" stop-color="#C4944E" stop-opacity="0.38"/>
<stop offset="0.95" stop-color="#C4944E" stop-opacity="0.82"/>
<stop offset="1" stop-color="#C4944E"/>
</radialGradient>
<radialGradient id="paint30_radial_312_208" cx="0" cy="0" r="1" gradientUnits="userSpaceOnUse" gradientTransform="translate(465.716 380.535) rotate(121.458) scale(2.74121 2.26005)">
<stop offset="0.68" stop-color="#DEBE1A"/>
<stop offset="0.82" stop-color="#D4AD2F"/>
<stop offset="1" stop-color="#C4944E"/>
</radialGradient>
<radialGradient id="paint31_radial_312_208" cx="0" cy="0" r="1" gradientUnits="userSpaceOnUse" gradientTransform="translate(317.629 388.968) rotate(-145.46) scale(109.632 89.8996)">
<stop offset="0.68" stop-color="#C4944E" stop-opacity="0"/>
<stop offset="0.73" stop-color="#C1914D" stop-opacity="0.12"/>
<stop offset="0.84" stop-color="#B88949" stop-opacity="0.44"/>
<stop offset="0.99" stop-color="#A97D43" stop-opacity="0.95"/>
<stop offset="1" stop-color="#A87C42"/>
</radialGradient>
<radialGradient id="paint32_radial_312_208" cx="0" cy="0" r="1" gradientUnits="userSpaceOnUse" gradientTransform="translate(471.896 377.664) rotate(121.458) scale(1.82377 1.50365)">
<stop offset="0.68" stop-color="#DEBE1A"/>
<stop offset="0.82" stop-color="#D4AD2F"/>
<stop offset="1" stop-color="#C4944E"/>
</radialGradient>
<linearGradient id="paint33_linear_312_208" x1="288.401" y1="281.44" x2="288.401" y2="196.975" gradientUnits="userSpaceOnUse">
<stop stop-color="#9AAA97"/>
<stop offset="0.93" stop-color="#E4EBE4"/>
</linearGradient>
<radialGradient id="paint34_radial_312_208" cx="0" cy="0" r="1" gradientUnits="userSpaceOnUse" gradientTransform="translate(341.776 258.914) rotate(-162.475) scale(59.0447 45.3598)">
<stop offset="0.68" stop-color="#4A3328"/>
<stop offset="1" stop-color="#38261F"/>
</radialGradient>
<radialGradient id="paint35_radial_312_208" cx="0" cy="0" r="1" gradientUnits="userSpaceOnUse" gradientTransform="translate(348.735 253.795) rotate(-157.028) scale(28.3665 17.5562)">
<stop offset="0.48" stop-color="#38261F" stop-opacity="0"/>
<stop offset="0.68" stop-color="#38261F" stop-opacity="0"/>
<stop offset="0.81" stop-color="#38261F" stop-opacity="0.37"/>
<stop offset="1" stop-color="#38261F"/>
</radialGradient>
<radialGradient id="paint36_radial_312_208" cx="0" cy="0" r="1" gradientUnits="userSpaceOnUse" gradientTransform="translate(335.194 260.039) rotate(-162.475) scale(23.28 17.8843)">
<stop offset="0.48" stop-color="#38261F" stop-opacity="0"/>
<stop offset="0.68" stop-color="#38261F" stop-opacity="0"/>
<stop offset="0.81" stop-color="#38261F" stop-opacity="0.37"/>
<stop offset="1" stop-color="#38261F"/>
</radialGradient>
<radialGradient id="paint37_radial_312_208" cx="0" cy="0" r="1" gradientUnits="userSpaceOnUse" gradientTransform="translate(331.133 274.693) rotate(-162.475) scale(19.4657 14.9541)">
<stop offset="0.48" stop-color="#38261F" stop-opacity="0"/>
<stop offset="0.68" stop-color="#38261F" stop-opacity="0"/>
<stop offset="0.81" stop-color="#38261F" stop-opacity="0.37"/>
<stop offset="1" stop-color="#38261F"/>
</radialGradient>
<radialGradient id="paint38_radial_312_208" cx="0" cy="0" r="1" gradientUnits="userSpaceOnUse" gradientTransform="translate(328.217 286.025) rotate(-137.421) scale(16.8677 12.8261)">
<stop offset="0.48" stop-color="#38261F" stop-opacity="0"/>
<stop offset="0.68" stop-color="#38261F" stop-opacity="0"/>
<stop offset="0.81" stop-color="#38261F" stop-opacity="0.37"/>
<stop offset="1" stop-color="#38261F"/>
</radialGradient>
</defs>
</svg>
