<svg width="32" height="32" viewBox="0 0 32 32" fill="none" xmlns="http://www.w3.org/2000/svg">
<path d="M16 28C22.6274 28 28 22.6274 28 16C28 9.37258 22.6274 4 16 4C9.37258 4 4 9.37258 4 16C4 22.6274 9.37258 28 16 28Z" stroke="white" stroke-width="1.3636" stroke-miterlimit="10" stroke-linecap="round" stroke-linejoin="round"/>
<path fill-rule="evenodd" clip-rule="evenodd" d="M15.9999 24.0401C16.3599 24.0401 16.5999 23.8001 16.5999 23.4401C16.5999 23.0801 16.3599 22.8401 15.9999 22.8401C15.6399 22.8401 15.3999 23.0801 15.3999 23.4401C15.3999 23.8001 15.6399 24.0401 15.9999 24.0401Z" fill="white" stroke="white" stroke-miterlimit="10" stroke-linecap="round" stroke-linejoin="round"/>
<path d="M11.2 13.2399C11.2 10.7199 13.48 8.67993 16.24 8.67993C18.8799 8.67993 21.1599 10.4799 20.7999 12.7599C20.5599 14.4399 18.28 15.5199 17.2 16.8399C16.24 18.0399 16.24 18.9999 16.12 19.8399" stroke="white" stroke-width="1.5145" stroke-miterlimit="10" stroke-linecap="round" stroke-linejoin="round"/>
</svg>
