<svg width="223" height="184" viewBox="0 0 223 184" fill="none" xmlns="http://www.w3.org/2000/svg">
<g clip-path="url(#clip0_376_2313)">
<g clip-path="url(#clip1_376_2313)">
<path d="M46.7508 84.7693L46.9048 86.1539C47.0589 87.2308 48.1371 88.0001 49.2153 87.5385L50.4476 86.9231L49.3694 87.6924C48.4452 88.3078 48.4452 89.6924 49.3694 90.3078L50.4476 91.077L49.2153 90.7693C48.1371 90.3078 47.0589 90.9231 46.9048 92.1539L46.7508 93.3847L46.5967 92.0001C46.4427 90.9231 45.3645 90.1539 44.2862 90.6154L43.054 91.2308L44.1322 90.4616C45.0564 89.8462 45.0564 88.4616 44.1322 87.8462L43.054 87.077L44.2862 87.6924C45.3645 88.1539 46.4427 87.5385 46.5967 86.3077L46.7508 84.7693Z" fill="#FCCD81"/>
<path d="M196.318 106L196.472 107.385C196.626 108.462 197.705 109.231 198.783 108.769L200.015 108.154L198.937 108.923C198.013 109.538 198.013 110.923 198.937 111.538L200.015 112.308L198.783 111.692C197.705 111.231 196.626 111.846 196.472 113.077L196.318 114.462L196.164 113.077C196.01 112 194.932 111.231 193.854 111.692L192.622 112.308L193.7 111.538C194.624 110.923 194.624 109.538 193.7 108.923L192.622 108.154L193.854 108.769C194.932 109.231 196.01 108.615 196.164 107.385L196.318 106Z" fill="#FCCD81"/>
<path d="M153.343 26.7693C149.8 27.077 147.027 30 146.719 33.6923L146.411 40.6154L146.103 33.6923C145.949 30 143.177 27.077 139.48 26.7693C143.023 26.4616 145.949 23.5385 146.103 19.8462L146.411 13.8462L146.719 19.8462C146.873 23.5385 149.646 26.4616 153.343 26.7693Z" fill="#FCCD81"/>
<path d="M197.551 72.1539C211.568 58.1539 220.194 39.6923 222.35 20.1539C222.504 19.0769 222.042 18.1539 221.426 17.5385C220.81 16.9231 219.886 16.4615 218.807 16.6154C199.091 18.7692 180.761 27.3846 166.744 41.3846L166.59 41.5385L156.731 51.3846L146.719 61.3846L136.707 71.3846L126.849 81.2308L116.837 91.2308L106.824 101.231L96.812 111.231L127.619 142L137.631 132L147.643 122L157.656 112L167.668 102L177.68 92L187.692 82L197.551 72.1539C197.397 72.3077 197.397 72.1539 197.551 72.1539Z" fill="url(#paint0_linear_376_2313)"/>
<path d="M125.616 140L135.475 130.154C143.638 122 146.411 109.692 143.176 96.9231L121.303 118.769C123.46 125.077 124.076 131.385 122.844 137.231L125.616 140Z" fill="url(#paint1_linear_376_2313)"/>
<path d="M127.619 141.846C126.541 142.923 124.384 142.923 121.612 142C118.839 140.923 115.604 139.077 112.216 136.308C110.521 134.923 108.827 133.385 107.132 131.692C105.438 130 103.898 128.308 102.511 126.615C99.7388 123.231 97.8904 120 96.8121 117.231C95.7339 114.462 95.7339 112.308 96.9662 111.231C98.0444 110.154 100.201 110.154 102.974 111.077C105.746 112.154 108.981 114 112.37 116.769C114.064 118.154 115.758 119.692 117.453 121.385C119.147 123.077 120.687 124.769 122.074 126.462C124.846 129.846 126.695 133.077 127.773 135.846C128.697 138.615 128.851 140.769 127.619 141.846Z" fill="#A84884"/>
<path d="M197.551 72.1539C198.629 71.077 198.629 68.9231 197.705 66.1539C196.627 63.3846 194.778 60.1539 192.006 56.7693C190.619 55.0769 189.079 53.3846 187.385 51.6923C185.69 50 183.996 48.4616 182.301 47.0769C178.913 44.3077 175.678 42.4616 172.905 41.3846C170.133 40.3077 167.976 40.3077 166.898 41.5385L126.849 81.5385C127.927 80.4616 130.084 80.4616 132.856 81.3846C135.629 82.4616 138.864 84.3077 142.252 87.0769C143.947 88.4616 145.641 90 147.335 91.6923C149.03 93.3846 150.57 95.077 151.957 96.7693C154.729 100.154 156.578 103.385 157.656 106.154C158.734 108.923 158.734 111.077 157.502 112.154L197.551 72.1539Z" fill="url(#paint2_linear_376_2313)"/>
<path d="M119.147 133.385C118.685 133.846 117.607 133.846 116.528 133.385C115.296 132.923 113.91 132 112.369 130.769C111.599 130.154 110.829 129.538 110.059 128.769C109.289 128 108.673 127.231 108.056 126.462C106.824 124.923 105.9 123.538 105.438 122.308C104.976 121.077 104.976 120.154 105.438 119.692C105.9 119.231 106.978 119.231 108.056 119.692C109.289 120.154 110.675 121.077 112.215 122.308C112.986 122.923 113.756 123.538 114.526 124.308C115.296 125.077 115.912 125.846 116.528 126.615C117.761 128.154 118.685 129.538 119.147 130.769C119.609 131.846 119.609 132.923 119.147 133.385Z" fill="black" stroke="black" stroke-width="0.2316" stroke-miterlimit="10"/>
<path d="M120.071 118.769C119.301 118 119.301 116.923 120.071 116.154L139.634 96.6154C140.404 95.8461 141.482 95.8461 142.252 96.6154C143.022 97.3846 143.022 98.4615 142.252 99.2308L122.69 118.769C121.92 119.385 120.841 119.385 120.071 118.769Z" fill="url(#paint3_linear_376_2313)"/>
<path d="M121.458 117.385C120.687 116.615 120.687 115.538 121.458 114.769L141.02 95.2307C141.79 94.4615 142.868 94.4615 143.639 95.2307C144.409 96 144.409 97.0769 143.639 97.8461L124.076 117.385C123.306 118 122.228 118 121.458 117.385Z" fill="url(#paint4_linear_376_2313)"/>
<path d="M154.421 115.077C157.656 127.846 154.729 140.308 146.719 148.308L134.088 160.923C133.472 161.539 132.394 160.615 132.702 159.846C135.321 152.923 135.167 144.923 132.394 137.077L154.421 115.077Z" fill="url(#paint5_linear_376_2313)"/>
<path d="M156.732 112.923C159.966 125.692 157.04 138.154 149.03 146.154L136.399 158.769C135.783 159.385 134.705 158.462 135.013 157.692C137.631 150.769 137.477 142.769 134.705 134.923L156.732 112.923Z" fill="url(#paint6_linear_376_2313)"/>
<path d="M135.475 137.231L137.323 135.385L147.335 125.385L157.348 115.385C157.194 114.615 157.04 113.692 156.732 112.769L134.705 134.769C135.013 135.692 135.321 136.462 135.475 137.231Z" fill="#A84884"/>
<path d="M123.614 84.4616C110.829 81.2308 98.3524 84.1539 90.3426 92.1539L77.7118 104.615C77.0957 105.231 78.0199 106.308 78.79 106C85.7216 103.385 93.7314 103.539 101.587 106.308L123.614 84.4616Z" fill="url(#paint7_linear_376_2313)"/>
<path d="M125.925 82.1539C113.14 78.9231 100.663 81.8462 92.6532 89.8462L80.0223 102.462C79.4062 103.077 80.3304 104.154 81.1006 103.846C88.0322 101.231 96.042 101.385 103.898 104.154L125.925 82.1539Z" fill="url(#paint8_linear_376_2313)"/>
<path d="M135.475 137.231L133.01 138.615L132.394 137.077L134.705 134.769L135.475 137.231Z" fill="#A84884"/>
<path d="M119.147 130.769C118.685 129.538 117.761 128.154 116.528 126.615C115.912 125.846 115.296 125.077 114.526 124.308C113.756 123.538 112.986 122.923 112.215 122.308C110.675 121.077 109.289 120.154 108.057 119.692C106.824 119.231 105.9 119.231 105.438 119.692L91.7289 133.385C89.8804 135.231 87.4159 136.615 84.7973 137.077C79.2521 138.154 74.631 142.462 73.3987 148.308C73.2447 149.231 73.0907 150.308 73.0907 151.231C69.7019 150.154 66.1591 150 62.4623 150.769C54.9146 152.308 49.2153 157.538 46.7507 164.308C40.5894 162.615 33.9659 162.308 27.3424 163.692C14.2494 166.462 4.08314 175.231 -1 186.462H82.6408C87.1078 181.538 89.2643 174.615 87.878 167.692L87.4159 165.846C94.1934 165.846 100.201 161.077 101.587 154.308V154.154C102.049 151.538 103.435 149.231 105.13 147.385L118.993 133.538C119.609 132.923 119.609 131.846 119.147 130.769Z" fill="url(#paint9_linear_376_2313)"/>
<path d="M100.817 146.154C98.9684 141.846 95.1175 138.615 90.6505 137.538L90.3425 137.385C87.5698 136.615 84.6432 136.769 82.0246 138C77.7116 139.846 74.4769 143.538 73.3986 148.462C73.2446 149.385 73.0906 150.462 73.0906 151.385L87.5698 165.692C94.3474 165.692 100.355 160.923 101.741 154.154C102.203 151.385 101.895 148.615 100.817 146.154Z" fill="url(#paint10_radial_376_2313)"/>
<path d="M87.878 167.539L87.4159 165.692L83.7191 159.692C81.4086 155.846 77.8658 152.923 73.5528 151.539C73.3988 151.539 73.0907 151.385 72.9367 151.385C72.7826 151.385 72.7826 151.385 72.6286 151.231C72.4746 151.231 72.3205 151.231 72.3205 151.077C72.1665 151.077 72.1665 151.077 72.0125 151.077C71.8584 151.077 71.7044 151.077 71.7044 150.923C71.5503 150.923 71.5503 150.923 71.3963 150.923C71.2423 150.923 71.0882 150.923 71.0882 150.769C70.9342 150.769 70.9342 150.769 70.7802 150.769C70.6261 150.769 70.4721 150.769 70.4721 150.769C70.3181 150.769 70.3181 150.769 70.164 150.769C70.01 150.769 69.856 150.769 69.856 150.769C69.7019 150.769 69.7019 150.769 69.5479 150.769C69.3939 150.769 69.2398 150.769 69.2398 150.769C69.0858 150.769 69.0858 150.769 68.9318 150.769C68.7777 150.769 68.6237 150.769 68.6237 150.769C68.4697 150.769 68.4697 150.769 68.3156 150.769C68.1616 150.769 68.0075 150.769 68.0075 150.769C67.8535 150.769 67.8535 150.769 67.6995 150.769C67.5454 150.769 67.3914 150.769 67.3914 150.769C67.2374 150.769 67.2374 150.769 67.0833 150.769C66.9293 150.769 66.7753 150.769 66.7753 150.769C66.6212 150.769 66.6212 150.769 66.4672 150.769C66.3132 150.769 66.1591 150.769 66.0051 150.769C65.8511 150.769 65.8511 150.769 65.697 150.769C65.543 150.769 65.389 150.769 65.2349 150.769C65.0809 150.769 65.0809 150.769 64.9269 150.769C64.7728 150.769 64.6188 150.769 64.4648 150.769C64.3107 150.769 64.3107 150.769 64.1567 150.769C64.0026 150.769 63.8486 150.769 63.6946 150.769H63.5405C63.2325 150.769 63.0784 150.923 62.7704 150.923C55.2227 152.462 49.5234 157.692 47.0588 164.462L56.4549 186.462H83.1029C87.1078 181.539 89.2643 174.615 87.878 167.539Z" fill="url(#paint11_radial_376_2313)"/>
<path d="M66.3131 179.385C62.7704 173.231 57.2251 168.308 50.6016 165.692C49.3693 165.231 47.983 164.769 46.7507 164.308C44.2862 163.539 41.6676 163.077 39.049 162.923C38.1248 162.769 37.0466 162.769 36.1224 162.769H35.9683C35.8143 162.769 35.6603 162.769 35.5062 162.769H35.3522C35.1981 162.769 35.0441 162.769 34.8901 162.769C34.736 162.769 34.736 162.769 34.582 162.769C34.428 162.769 34.2739 162.769 34.1199 162.769H33.9659C33.6578 162.769 33.5038 162.769 33.1957 162.769C33.0417 162.769 33.0417 162.769 32.8876 162.769C32.7336 162.769 32.7336 162.769 32.5796 162.769C32.4255 162.769 32.2715 162.769 32.2715 162.769C32.1175 162.769 32.1175 162.769 31.9634 162.769C31.8094 162.769 31.6553 162.769 31.6553 162.769C31.5013 162.769 31.5013 162.769 31.3473 162.769C31.1932 162.769 31.0392 162.769 30.8852 162.769C30.7311 162.769 30.7311 162.769 30.5771 162.769C30.4231 162.769 30.115 162.769 29.961 162.923H29.8069C29.6529 162.923 29.4989 162.923 29.3448 163.077C29.1908 163.077 29.1908 163.077 29.0368 163.077C28.8827 163.077 28.7287 163.077 28.5747 163.231C28.4206 163.231 28.4206 163.231 28.2666 163.231C28.1126 163.231 27.9585 163.231 27.8045 163.385C27.6504 163.385 27.4964 163.385 27.4964 163.385C14.2494 166.462 4.08314 175.231 -1 186.462H70.318L66.3131 179.385Z" fill="url(#paint12_radial_376_2313)"/>
<path d="M168.13 79.2308C172.809 79.2308 176.602 75.4425 176.602 70.7693C176.602 66.0961 172.809 62.3077 168.13 62.3077C163.451 62.3077 159.658 66.0961 159.658 70.7693C159.658 75.4425 163.451 79.2308 168.13 79.2308Z" fill="url(#paint13_linear_376_2313)"/>
<path d="M168.13 78C172.128 78 175.37 74.7627 175.37 70.7692C175.37 66.7758 172.128 63.5385 168.13 63.5385C164.132 63.5385 160.89 66.7758 160.89 70.7692C160.89 74.7627 164.132 78 168.13 78Z" fill="url(#paint14_radial_376_2313)"/>
<path d="M164.125 66.7692C166.744 64.1538 170.903 64 173.829 66.3077C173.675 66.1538 173.521 65.8461 173.367 65.6923C170.595 62.923 165.974 62.923 163.047 65.6923C160.274 68.4615 160.274 73.0769 163.047 76C163.201 76.1538 163.509 76.3077 163.663 76.4615C161.353 73.5384 161.507 69.3846 164.125 66.7692Z" fill="#01CDBE"/>
</g>
</g>
<defs>
<linearGradient id="paint0_linear_376_2313" x1="149.001" y1="54.2017" x2="178.764" y2="83.998" gradientUnits="userSpaceOnUse">
<stop stop-color="#A84884"/>
<stop offset="0.0386342" stop-color="#AD4A87"/>
<stop offset="0.0837545" stop-color="#BB5192"/>
<stop offset="0.1321" stop-color="#D25CA2"/>
<stop offset="0.1825" stop-color="#F36CBA"/>
<stop offset="0.1865" stop-color="#F66DBC"/>
<stop offset="0.4835" stop-color="#F66DBC"/>
<stop offset="0.7801" stop-color="#A84884"/>
</linearGradient>
<linearGradient id="paint1_linear_376_2313" x1="127.637" y1="111.934" x2="140.942" y2="124.309" gradientUnits="userSpaceOnUse">
<stop stop-color="#A84884"/>
<stop offset="0.7801" stop-color="#A84884" stop-opacity="0"/>
</linearGradient>
<linearGradient id="paint2_linear_376_2313" x1="146.795" y1="56.3794" x2="177.561" y2="87.1791" gradientUnits="userSpaceOnUse">
<stop stop-color="#9AAA97"/>
<stop offset="0.0389177" stop-color="#9FAE9C"/>
<stop offset="0.0843682" stop-color="#ACBAAA"/>
<stop offset="0.1331" stop-color="#C3CEC1"/>
<stop offset="0.1838" stop-color="#E2E9E2"/>
<stop offset="0.1865" stop-color="#E4EBE4"/>
<stop offset="0.4835" stop-color="#E4EBE4"/>
<stop offset="0.7801" stop-color="#9AAA97"/>
</linearGradient>
<linearGradient id="paint3_linear_376_2313" x1="124.511" y1="101.426" x2="135.288" y2="111.563" gradientUnits="userSpaceOnUse">
<stop offset="0.2092" stop-color="#F66DBC"/>
<stop offset="0.7801" stop-color="#A84884"/>
</linearGradient>
<linearGradient id="paint4_linear_376_2313" x1="125.894" y1="100.045" x2="136.671" y2="110.182" gradientUnits="userSpaceOnUse">
<stop offset="0.4835" stop-color="#F66DBC"/>
<stop offset="0.7801" stop-color="#A84884"/>
</linearGradient>
<linearGradient id="paint5_linear_376_2313" x1="150.658" y1="147.747" x2="137.15" y2="128.768" gradientUnits="userSpaceOnUse">
<stop stop-color="#F66DBC"/>
<stop offset="0.1306" stop-color="#A84884"/>
<stop offset="0.1557" stop-color="#AD4A87"/>
<stop offset="0.1851" stop-color="#BB5192"/>
<stop offset="0.2166" stop-color="#D25CA2"/>
<stop offset="0.2493" stop-color="#F36CBA"/>
<stop offset="0.252" stop-color="#F66DBC"/>
<stop offset="0.4835" stop-color="#F66DBC"/>
<stop offset="0.7801" stop-color="#A84884"/>
</linearGradient>
<linearGradient id="paint6_linear_376_2313" x1="134.754" y1="135.874" x2="168.801" y2="135.874" gradientUnits="userSpaceOnUse">
<stop offset="0.4835" stop-color="#F66DBC"/>
<stop offset="0.7801" stop-color="#A84884"/>
</linearGradient>
<linearGradient id="paint7_linear_376_2313" x1="89.9683" y1="88.3547" x2="110.701" y2="101.392" gradientUnits="userSpaceOnUse">
<stop stop-color="#F66DBC"/>
<stop offset="0.1188" stop-color="#A84884"/>
<stop offset="0.1468" stop-color="#AD4A87"/>
<stop offset="0.1795" stop-color="#BB5192"/>
<stop offset="0.2146" stop-color="#D25CA2"/>
<stop offset="0.2511" stop-color="#F36CBA"/>
<stop offset="0.2541" stop-color="#F66DBC"/>
<stop offset="0.4835" stop-color="#F66DBC"/>
<stop offset="0.7801" stop-color="#A84884"/>
</linearGradient>
<linearGradient id="paint8_linear_376_2313" x1="79.8645" y1="92.4299" x2="151.377" y2="92.4299" gradientUnits="userSpaceOnUse">
<stop offset="0.4835" stop-color="#F66DBC"/>
<stop offset="0.7801" stop-color="#A84884"/>
</linearGradient>
<linearGradient id="paint9_linear_376_2313" x1="68.6378" y1="167.712" x2="88.7802" y2="188.855" gradientUnits="userSpaceOnUse">
<stop offset="0.1795" stop-color="#F2F7F2"/>
<stop offset="0.6691" stop-color="#C3D2C3"/>
</linearGradient>
<radialGradient id="paint10_radial_376_2313" cx="0" cy="0" r="1" gradientUnits="userSpaceOnUse" gradientTransform="translate(83.4121 136.773) scale(33.2285 33.1878)">
<stop offset="0.4561" stop-color="#F2F7F2"/>
<stop offset="0.6649" stop-color="#F0F5F0"/>
<stop offset="0.7556" stop-color="#E9F0E9"/>
<stop offset="0.8233" stop-color="#DCE6DC"/>
<stop offset="0.8794" stop-color="#CAD8CA"/>
<stop offset="0.8972" stop-color="#C3D2C3"/>
</radialGradient>
<radialGradient id="paint11_radial_376_2313" cx="0" cy="0" r="1" gradientUnits="userSpaceOnUse" gradientTransform="translate(68.9244 156.394) scale(29.4499 29.4138)">
<stop stop-color="#F2F7F2"/>
<stop offset="0.4282" stop-color="#F2F7F2"/>
<stop offset="0.5018" stop-color="#F2F7F2"/>
<stop offset="0.685" stop-color="#F0F5F0"/>
<stop offset="0.7676" stop-color="#E9F0E9"/>
<stop offset="0.83" stop-color="#DCE6DC"/>
<stop offset="0.8819" stop-color="#CAD7CA"/>
<stop offset="0.8972" stop-color="#C3D2C3"/>
</radialGradient>
<radialGradient id="paint12_radial_376_2313" cx="0" cy="0" r="1" gradientUnits="userSpaceOnUse" gradientTransform="translate(30.3639 159.789) scale(49.5773 49.5166)">
<stop offset="0.5018" stop-color="#F2F7F2"/>
<stop offset="0.685" stop-color="#F0F5F0"/>
<stop offset="0.7676" stop-color="#E9F0E9"/>
<stop offset="0.83" stop-color="#DCE6DC"/>
<stop offset="0.8819" stop-color="#CAD7CA"/>
<stop offset="0.8972" stop-color="#C3D2C3"/>
</radialGradient>
<linearGradient id="paint13_linear_376_2313" x1="173.657" y1="76.1554" x2="161.534" y2="64.1363" gradientUnits="userSpaceOnUse">
<stop offset="0.4835" stop-color="#D5E0D5"/>
<stop offset="0.8145" stop-color="#9AAA97"/>
</linearGradient>
<radialGradient id="paint14_radial_376_2313" cx="0" cy="0" r="1" gradientUnits="userSpaceOnUse" gradientTransform="translate(173.495 74.7743) scale(11.7117 11.6974)">
<stop offset="0.6308" stop-color="#91E6B2"/>
<stop offset="0.7182" stop-color="#8EE6B2"/>
<stop offset="0.7791" stop-color="#85E4B3"/>
<stop offset="0.8318" stop-color="#76E1B4"/>
<stop offset="0.88" stop-color="#60DDB6"/>
<stop offset="0.925" stop-color="#44D9B8"/>
<stop offset="0.9671" stop-color="#21D3BB"/>
<stop offset="1" stop-color="#01CDBE"/>
</radialGradient>
<clipPath id="clip0_376_2313">
<rect width="223" height="184" fill="white"/>
</clipPath>
<clipPath id="clip1_376_2313">
<rect width="223.35" height="200" fill="white" transform="translate(-1)"/>
</clipPath>
</defs>
</svg>
